<svg id="visual" viewBox="0 0 900 600" width="900" height="600" xmlns="http://www.w3.org/2000/svg" xmlns:xlink="http://www.w3.org/1999/xlink" version="1.1"><rect x="0" y="0" width="900" height="600" fill="#e63946"></rect><path d="M709 600L713.7 575C718.3 550 727.7 500 730.8 450C734 400 731 350 726.3 300C721.7 250 715.3 200 722.5 150C729.7 100 750.3 50 760.7 25L771 0L900 0L900 25C900 50 900 100 900 150C900 200 900 250 900 300C900 350 900 400 900 450C900 500 900 550 900 575L900 600Z" fill="#fa7268"></path><path d="M736 600L746.2 575C756.3 550 776.7 500 780.8 450C785 400 773 350 761.8 300C750.7 250 740.3 200 737.3 150C734.3 100 738.7 50 740.8 25L743 0L900 0L900 25C900 50 900 100 900 150C900 200 900 250 900 300C900 350 900 400 900 450C900 500 900 550 900 575L900 600Z" fill="#f45e59"></path><path d="M790 600L787.3 575C784.7 550 779.3 500 783.3 450C787.3 400 800.7 350 805 300C809.3 250 804.7 200 804.8 150C805 100 810 50 812.5 25L815 0L900 0L900 25C900 50 900 100 900 150C900 200 900 250 900 300C900 350 900 400 900 450C900 500 900 550 900 575L900 600Z" fill="#ee494b"></path><path d="M821 600L827.8 575C834.7 550 848.3 500 855.5 450C862.7 400 863.3 350 858.5 300C853.7 250 843.3 200 837.7 150C832 100 831 50 830.5 25L830 0L900 0L900 25C900 50 900 100 900 150C900 200 900 250 900 300C900 350 900 400 900 450C900 500 900 550 900 575L900 600Z" fill="#e72e3e"></path></svg>