<svg id="visual" viewBox="0 0 540 960" width="540" height="960" xmlns="http://www.w3.org/2000/svg" xmlns:xlink="http://www.w3.org/1999/xlink" version="1.1"><rect x="0" y="0" width="540" height="960" fill="#e63946"></rect><path d="M0 881L9 883C18 885 36 889 54 889.2C72 889.3 90 885.7 108 883.2C126 880.7 144 879.3 162 879.8C180 880.3 198 882.7 216 885.2C234 887.7 252 890.3 270 889.8C288 889.3 306 885.7 324 885.8C342 886 360 890 378 891.8C396 893.7 414 893.3 432 892.8C450 892.3 468 891.7 486 889.3C504 887 522 883 531 881L540 879L540 961L531 961C522 961 504 961 486 961C468 961 450 961 432 961C414 961 396 961 378 961C360 961 342 961 324 961C306 961 288 961 270 961C252 961 234 961 216 961C198 961 180 961 162 961C144 961 126 961 108 961C90 961 72 961 54 961C36 961 18 961 9 961L0 961Z" fill="#f1746b"></path><path d="M0 904L9 903.5C18 903 36 902 54 903C72 904 90 907 108 908.7C126 910.3 144 910.7 162 910.8C180 911 198 911 216 910.5C234 910 252 909 270 907.7C288 906.3 306 904.7 324 904.3C342 904 360 905 378 906.5C396 908 414 910 432 911.5C450 913 468 914 486 915C504 916 522 917 531 917.5L540 918L540 961L531 961C522 961 504 961 486 961C468 961 450 961 432 961C414 961 396 961 378 961C360 961 342 961 324 961C306 961 288 961 270 961C252 961 234 961 216 961C198 961 180 961 162 961C144 961 126 961 108 961C90 961 72 961 54 961C36 961 18 961 9 961L0 961Z" fill="#e3514e"></path><path d="M0 941L9 941.3C18 941.7 36 942.3 54 941.3C72 940.3 90 937.7 108 937.7C126 937.7 144 940.3 162 939C180 937.7 198 932.3 216 930.8C234 929.3 252 931.7 270 934.3C288 937 306 940 324 941.2C342 942.3 360 941.7 378 940.5C396 939.3 414 937.7 432 936.8C450 936 468 936 486 935.2C504 934.3 522 932.7 531 931.8L540 931L540 961L531 961C522 961 504 961 486 961C468 961 450 961 432 961C414 961 396 961 378 961C360 961 342 961 324 961C306 961 288 961 270 961C252 961 234 961 216 961C198 961 180 961 162 961C144 961 126 961 108 961C90 961 72 961 54 961C36 961 18 961 9 961L0 961Z" fill="#d32533"></path></svg>